# xmcd
#
# Track frame offsets: 
#        150
#        11141
#        22754
#        36139
#        46128
#        59808
#        73163
#        84283
#        96477
#        108228
#        118689
#        130357
#        137509
#        147490
#        158690
#        171908
#
# Disc length: 2453 seconds
#
# Revision: 0
# Processed by: cddbd v1.5.2PL0 Copyright (c) Steve Scherf et al.
# Submitted via: ExactAudioCopy v0.99pb5
#
DISCID=de099310
DTITLE=Various Artist - Country and Western Hits  cd5
DYEAR=2000
DGENRE=Country
TTITLE0=Hanks snow - Unwanted sign upon your heart 
TTITLE1=Tex Williams - Money
TTITLE2=Ferlin Husky - I lost my heart today 
TTITLE3=Don Gibson - We're steppin out tonight
TTITLE4=Ernest Tubb - Drift wood on the river
TTITLE5=Ray Price - The price for loving you
TTITLE6=Jim Reeves - El rancho del rio
TTITLE7=Hank Williams - Your cheatin' heart
TTITLE8=Lefty Fruzzell - My rough and rowdy ways
TTITLE9=Ceht Atkins - My rockin' swing
TTITLE10=Johnny Horton - Shadows on the old bayou
TTITLE11=Gene Autrey - Red river valley
TTITLE12=Marty Robbins - Mean mama blues
TTITLE13=Roy Acuff - It's all right now
TTITLE14=Merle Travis - Three times seven
TTITLE15=Hank Thompson - The wild side of life
EXTD=
EXTT0=
EXTT1=
EXTT2=
EXTT3=
EXTT4=
EXTT5=
EXTT6=
EXTT7=
EXTT8=
EXTT9=
EXTT10=
EXTT11=
EXTT12=
EXTT13=
EXTT14=
EXTT15=
PLAYORDER=
